<svg xmlns="http://www.w3.org/2000/svg" viewBox="0 0 128 128" role="img" aria-label="Relay icon"><defs><filter id="depth" x="-40%" y="-40%" width="180%" height="180%"><feDropShadow dx="0" dy="8" stdDeviation="5" flood-color="#2b2118" flood-opacity=".22"/></filter><linearGradient id="soft" x1="18" x2="110" y1="18" y2="112" gradientUnits="userSpaceOnUse"><stop stop-color="#fffaf2"/><stop offset="1" stop-color="#e5d8ca"/></linearGradient><linearGradient id="warm" x1="20" x2="108" y1="20" y2="108" gradientUnits="userSpaceOnUse"><stop stop-color="#ddaaa2"/><stop offset="1" stop-color="#ad715e"/></linearGradient><linearGradient id="cool" x1="20" x2="108" y1="20" y2="108" gradientUnits="userSpaceOnUse"><stop stop-color="#7fa9a2"/><stop offset="1" stop-color="#456f77"/></linearGradient></defs><g filter="url(#depth)"><path d="M20 31h69c10 0 18 8 18 18v31c0 10-8 18-18 18H60l-26 16 7-16H20z" fill="#fff7ea"/><path d="M20 31h69c10 0 18 8 18 18v31" fill="none" stroke="#604638" stroke-width="8" stroke-linecap="round"/><path d="M46 58h42" stroke="#b87963" stroke-width="8" stroke-linecap="round"/><path d="M70 78h32" stroke="#241f1b" stroke-width="8" stroke-linecap="round"/><path d="M91 62l18 17-18 17" fill="none" stroke="#241f1b" stroke-width="8" stroke-linecap="round" stroke-linejoin="round"/><path d="M93 32l13 12 23-28" fill="none" stroke="#6f9270" stroke-width="8" stroke-linecap="round" stroke-linejoin="round"/></g></svg>